P2
24 7
255
48 48 48 48 48 48 48 48 48 48 48 48 48 48 48 48 48 48 48 48 48 48 48 48 
48 51 51 51 51 48 48 55 55 55 55 48 48 49 49 49 49 49 49 49 49 48 48 49 
53 49 53 49 53 49 53 48 48 51 48 48 48 48 48 55 48 48 48 48 48 49 49 48 
48 48 48 48 49 53 48 48 49 53 48 48 51 51 51 48 48 48 55 55 55 48 48 48 
49 49 49 49 49 49 48 48 48 49 53 49 53 49 53 49 53 48 48 51 48 48 48 48 
48 55 48 48 48 48 48 49 49 48 48 48 48 48 49 53 48 48 48 48 48 51 48 48 
48 48 48 55 55 55 55 48 48 49 49 49 49 49 49 49 49 48 48 49 53 48 48 48 
